<svg xmlns="http://www.w3.org/2000/svg"  width="183" height="87" viewBox="0 0 183 87">
	<polygon fill="#FFFFFF" points="15.749,44.039 15.749,24.236 0,26.834 "/>
	<path fill="#FFFFFF" d="M176.736,46.937l-3.595,9.809c-0.022,0.06-0.044,0.117-0.066,0.177l-3.614,10.625h13.437L176.736,46.937z"/>
	<path fill="#FFFFFF" d="M30.685,47.764c0.348-1.091,0.497-2.282,0.497-4.466s-0.148-3.374-0.497-4.466
		c-0.644-1.985-2.183-3.076-4.416-3.076c-2.283,0-3.821,1.091-4.466,3.076c-0.347,1.092-0.497,2.282-0.497,4.466
		s0.149,3.375,0.497,4.466c0.645,1.985,2.183,3.077,4.466,3.077C28.502,50.841,30.04,49.749,30.685,47.764z"/>
	<path fill="#FFFFFF" d="M160.389,31.34h4.912c0.298,0,0.496,0.199,0.596,0.497l5.408,15.63h0.1l2.881-8.728L162.704,0L21.306,23.319
		v10.303h0.049c1.142-1.637,3.126-2.829,6.352-2.829c4.069,0,7.046,1.936,8.287,5.756c0.596,1.836,0.844,3.523,0.844,6.748
		s-0.248,4.913-0.844,6.748c-1.241,3.821-4.218,5.756-8.287,5.756c-0.441,0-0.856-0.024-1.251-0.067l10.811,11.811h126.506l4.888-13
		l0.063-0.183l-8.734-22.527C159.892,31.539,160.091,31.34,160.389,31.34z M75.64,45.085H60.902c-0.198,0-0.297,0.099-0.297,0.298
		c0,0.695,0.148,1.29,0.347,1.835c0.794,2.333,2.679,3.623,5.359,3.623c2.679,0,4.416-0.992,5.607-2.282
		c0.248-0.248,0.496-0.298,0.744-0.1l2.928,2.58c0.248,0.199,0.248,0.447,0.049,0.695c-2.034,2.381-5.409,4.068-9.824,4.068
		c-5.061,0-8.634-2.48-9.974-6.648c-0.497-1.538-0.844-3.375-0.844-5.856c0-2.48,0.298-4.366,0.794-5.904
		c1.34-4.168,5.011-6.6,9.775-6.6c4.913,0,8.485,2.531,9.825,6.6c0.546,1.687,0.794,3.324,0.794,7.195
		C76.186,44.886,75.988,45.085,75.64,45.085z M104.766,55.058c0,0.298-0.199,0.496-0.496,0.496h-2.183
		c-4.665,0-6.55-2.232-6.55-6.847V22.011c0-0.298,0.199-0.496,0.497-0.496h4.565c0.298,0,0.497,0.198,0.497,0.496v26.398
		c0,1.637,0.645,2.183,2.084,2.183h1.092c0.297,0,0.496,0.199,0.496,0.497V55.058z M142.476,54.761c0,0.298-0.199,0.497-0.497,0.497
		h-4.168c-0.298,0-0.496-0.199-0.496-0.497v-1.736h-0.05c-1.141,1.637-3.374,2.778-6.748,2.778c-4.366,0-8.038-2.282-8.038-7.294
		c0-5.211,3.672-7.592,9.577-7.592h4.863c0.199,0,0.298-0.099,0.298-0.298v-1.142c0-2.729-1.29-3.969-5.309-3.969
		c-2.679,0-4.317,0.744-5.458,1.637c-0.248,0.199-0.546,0.149-0.695-0.099l-1.835-3.275c-0.149-0.248-0.1-0.497,0.099-0.645
		c1.935-1.39,4.565-2.333,8.486-2.333c7.294,0,9.974,2.481,9.974,8.336V54.761z"/>
	<path fill="#FFFFFF" d="M65.617,35.508c-2.282,0-4.069,1.142-4.714,3.077c-0.199,0.596-0.298,1.19-0.298,2.034
		c0,0.199,0.099,0.298,0.298,0.298h9.378c0.199,0,0.299-0.099,0.299-0.298c0-0.844-0.1-1.439-0.299-2.034
		C69.636,36.649,67.85,35.508,65.617,35.508z"/>
	<path fill="#FFFFFF" d="M136.918,45.085h-3.969c-3.573,0-5.16,0.992-5.16,3.225c0,1.985,1.439,2.977,4.118,2.977
		c3.424,0,5.31-1.34,5.31-4.068v-1.836C137.216,45.184,137.117,45.085,136.918,45.085z"/>
	<path fill="#FFFFFF" d="M42.595,80.866c-0.054-0.361-0.186-0.711-0.391-1.039c-0.571-0.97-1.44-1.468-2.583-1.476h-2.971v8.581
		h2.889c0.632,0,1.175-0.147,1.61-0.433c0.439-0.267,0.788-0.61,1.035-1.022c0.091-0.152,0.168-0.299,0.236-0.446
		c0.064-0.151,0.112-0.325,0.143-0.513c0.064-0.364,0.096-0.977,0.096-1.876C42.657,81.814,42.636,81.218,42.595,80.866z
		M38.242,79.912h1.246c0.545-0.008,0.955,0.185,1.262,0.624c0.138,0.161,0.227,0.379,0.265,0.641
		c0.032,0.304,0.048,0.812,0.048,1.51c0,0.715-0.016,1.211-0.047,1.472c-0.032,0.234-0.105,0.428-0.227,0.589
		c-0.269,0.42-0.696,0.625-1.305,0.625h-1.241V79.912z"/>
	<polygon fill-rule="evenodd" clip-rule="evenodd" fill="#FFFFFF" points="56.485,79.911 56.485,78.351 51.025,78.351 51.025,86.932 
		56.485,86.932 56.485,85.372 52.618,85.372 52.618,83.354 55.919,83.354 55.919,81.862 52.618,81.862 52.618,79.911 "/>
	<polygon fill-rule="evenodd" clip-rule="evenodd" fill="#FFFFFF" points="68.671,78.351 67.005,84.114 65.343,78.351 63.655,78.351 
		66.394,86.932 67.615,86.932 70.359,78.351 "/>
	<polygon fill-rule="evenodd" clip-rule="evenodd" fill="#FFFFFF" points="83.541,79.911 83.541,78.351 78.081,78.351 78.081,86.932 
		83.541,86.932 83.541,85.372 79.675,85.372 79.675,83.354 82.975,83.354 82.975,81.862 79.675,81.862 79.675,79.911 "/>
	<polygon fill-rule="evenodd" clip-rule="evenodd" fill="#FFFFFF" points="93.203,85.372 93.203,78.351 91.61,78.351 91.61,86.932 
		97.07,86.932 97.07,85.372 "/>
	<path fill="#FFFFFF" d="M110.848,80.702c-0.054-0.343-0.156-0.629-0.301-0.849c-0.2-0.401-0.522-0.762-0.959-1.072
		c-0.452-0.322-1.02-0.49-1.693-0.497c-0.662,0.008-1.224,0.175-1.67,0.494c-0.449,0.311-0.781,0.674-0.981,1.067
		c-0.131,0.218-0.229,0.504-0.292,0.851c-0.057,0.335-0.084,0.972-0.084,1.946c0,0.957,0.027,1.589,0.084,1.93
		c0.031,0.192,0.071,0.348,0.122,0.482c0.048,0.115,0.101,0.235,0.163,0.367c0.207,0.408,0.54,0.768,0.984,1.071
		c0.448,0.321,1.01,0.492,1.68,0.508c0.668-0.016,1.234-0.187,1.684-0.507c0.442-0.306,0.768-0.668,0.954-1.051
		c0.149-0.222,0.254-0.515,0.31-0.875c0.048-0.342,0.071-0.972,0.071-1.926C110.921,81.672,110.897,81.039,110.848,80.702z
		M107.257,80.062c0.174-0.094,0.391-0.144,0.633-0.151c0.256,0.007,0.478,0.058,0.655,0.149c0.174,0.097,0.313,0.22,0.429,0.381
		c0.133,0.15,0.226,0.349,0.275,0.587c0.052,0.28,0.079,0.823,0.079,1.613c0,0.79-0.026,1.328-0.078,1.6
		c-0.05,0.249-0.144,0.45-0.288,0.616c-0.102,0.144-0.24,0.262-0.42,0.356c-0.355,0.21-0.915,0.22-1.289-0.006
		c-0.179-0.09-0.325-0.209-0.443-0.366c-0.131-0.148-0.22-0.348-0.265-0.6c-0.055-0.272-0.083-0.81-0.083-1.599
		s0.028-1.331,0.084-1.614c0.044-0.24,0.133-0.438,0.274-0.598C106.929,80.285,107.077,80.161,107.257,80.062z"/>
	<path fill="#FFFFFF" d="M124.929,79.825c-0.169-0.368-0.394-0.658-0.667-0.859c-0.317-0.259-0.636-0.432-0.962-0.52
		c-0.302-0.063-0.62-0.094-0.944-0.094h-3.071v8.581h1.593v-3.196h1.637c0.874-0.016,1.551-0.313,2.011-0.879
		c0.442-0.532,0.666-1.131,0.666-1.782C125.191,80.598,125.102,80.175,124.929,79.825z M123.597,81.041
		c0,0.288-0.091,0.543-0.278,0.779c-0.189,0.233-0.47,0.35-0.855,0.356h-1.586v-2.265h1.546c0.289-0.014,0.534,0.059,0.756,0.204
		c0.134,0.08,0.235,0.187,0.305,0.315C123.559,80.59,123.597,80.796,123.597,81.041z"/>
	<polygon fill-rule="evenodd" clip-rule="evenodd" fill="#FFFFFF" points="136.834,83.38 134.692,78.351 133.233,78.351 
		133.233,86.932 134.828,86.932 134.828,82.548 136.182,85.758 137.445,85.758 138.805,82.536 138.805,86.932 140.398,86.932 
		140.398,78.351 138.936,78.351 "/>
	<polygon fill-rule="evenodd" clip-rule="evenodd" fill="#FFFFFF" points="154.541,79.911 154.541,78.351 149.081,78.351 
		149.081,86.932 154.541,86.932 154.541,85.372 150.675,85.372 150.675,83.354 153.975,83.354 153.975,81.862 150.675,81.862 
		150.675,79.911 "/>
	<polygon fill-rule="evenodd" clip-rule="evenodd" fill="#FFFFFF" points="167.355,78.351 167.355,83.711 164.048,78.351 
		162.609,78.351 162.609,86.932 164.203,86.932 164.203,81.572 167.506,86.932 168.949,86.932 168.949,78.351 "/>
	<polygon fill-rule="evenodd" clip-rule="evenodd" fill="#FFFFFF" points="176.783,78.351 176.783,79.845 178.957,79.845 
		178.957,86.932 180.55,86.932 180.55,79.845 182.727,79.845 182.727,78.351 "/>
</svg>
