<?xml version="1.0" standalone="no"?>
<!DOCTYPE svg PUBLIC "-//W3C//DTD SVG 20010904//EN"
 "http://www.w3.org/TR/2001/REC-SVG-20010904/DTD/svg10.dtd">
<svg version="1.0" xmlns="http://www.w3.org/2000/svg"
 width="260.000000pt" height="260.000000pt" viewBox="0 0 260.000000 260.000000"
 preserveAspectRatio="xMidYMid meet">
<metadata>
Created by potrace 1.14, written by Peter Selinger 2001-2017
</metadata>
<g transform="translate(0.000000,260.000000) scale(0.100000,-0.100000)"
fill="#000000" stroke="none">
<path d="M2050 2142 c-27 -9 -595 -232 -615 -242 -11 -5 -141 -57 -290 -115
-148 -58 -279 -110 -290 -115 -20 -9 -640 -254 -762 -301 -35 -13 -63 -26 -63
-29 0 -3 17 -23 38 -45 30 -33 220 -240 257 -281 6 -6 53 -57 105 -114 52 -57
100 -108 105 -114 13 -15 96 -106 221 -241 l102 -110 861 1 c474 0 864 3 867
6 3 4 1 14 -5 25 -5 10 -35 101 -65 203 -30 102 -70 237 -89 300 -54 177 -242
794 -303 994 -30 99 -55 180 -57 181 -1 1 -9 0 -17 -3z"/>
</g>
</svg>
